<svg fill="none" height="25" viewBox="0 0 25 25" width="25" xmlns="http://www.w3.org/2000/svg" xmlns:xlink="http://www.w3.org/1999/xlink"><clipPath id="clip0_253_20882"><path d="m.407.023h24v24h-24z"/></clipPath><g clip-path="url(#clip0_253_20882)"><path d="m23.3072.12381c-.1-.1000002-.2-.1999819-.4-.1999819h-20.99997c-.1 0-.3.0999817-.4.1999819-.1.1-.1.199994-.1.399994l2 19.999996c0 .2.19998.4.29998.4l8.99999 3h.2.2l8-3c.2-.1.3-.2.3-.4l2-19.999996c0-.1 0-.299994-.1-.399994zm-11.1 18.29999c-.1.1-.2.1-.3.1h-.1l-3.49998-1c-.2-.1-.29999-.2-.39999-.4l-.5-2.5c-.1-.3.09999-.5.39999-.6s.50001.1.60001.4l.39999 2.2 2.59998.7v-11.3h-5.49997c-.3 0-.5-.2-.5-.5s.2-.5.5-.5h5.99997c.3 0 .5.2.5.5v12.5c0 .1-.1.3-.2.4zm7.2-12.79999-.5 2c-.1.3-.3.39999-.6.39999-.3-.1-.4-.29997-.4-.59997l.3-1.40003h-3.9v5h3.5c.1 0 .3.1.4.2s.1.3.1.4l-1 5.5c0 .2-.2.3-.3.4l-3 1c-.1 0-.1 0-.2 0-.2 0-.4-.1-.5-.3-.1-.3.1-.5.3-.6l2.7-.9.8-4.6h-3.4c-.3 0-.5-.2-.5-.5v-5.99999c0-.3.2-.5.5-.5h5c.2 0 .3.10001.4.20001.3 0 .3.19999.3.29999z" fill="#000"/></g></svg>